<?xml version="1.0" encoding="UTF-8" standalone="no"?><!DOCTYPE svg PUBLIC "-//W3C//DTD SVG 1.1//EN" "http://www.w3.org/Graphics/SVG/1.1/DTD/svg11.dtd"><svg xmlns="http://www.w3.org/2000/svg" version="1.1" width="621" height="282"><path fill="none" stroke="#000000" stroke-width="2" stroke-linecap="round" stroke-linejoin="round" d="M 1 224 c 0.18 -0.04 6.86 -0.83 10 -2 c 13.65 -5.09 26.98 -10.78 41 -17 c 22.62 -10.03 43.08 -18.96 65 -30 c 25.07 -12.63 47.81 -25.02 72 -39 c 13.03 -7.53 25.48 -14.88 37 -24 c 18.88 -14.94 37.51 -30.92 54 -48 c 10.91 -11.3 21.06 -25.3 29 -38 c 3.15 -5.04 4.79 -12.69 6 -18 c 0.26 -1.15 -0.3 -3.18 -1 -4 c -1 -1.16 -3.32 -2.84 -5 -3 c -7.79 -0.73 -18.05 -0.76 -27 0 c -10.74 0.91 -23.31 0.76 -32 5 c -15.79 7.7 -32.64 21.8 -48 34 c -9.05 7.19 -17.46 15.24 -25 24 c -13.18 15.31 -26.73 31.32 -37 48 c -7.96 12.94 -14.62 29.41 -19 43 c -1.49 4.62 -0.88 10.98 0 16 c 1.37 7.84 2.82 18.01 7 24 c 6.98 10 18.98 21.34 30 29 c 18.8 13.08 40.9 25.17 62 35 c 12.75 5.94 27.13 10.67 41 13 c 29.16 4.9 59.42 6.95 90 9 c 14.88 1 29.24 1.17 44 0 c 27.71 -2.2 56.77 -3.15 82 -10 c 23.1 -6.27 47.89 -19.15 69 -31 c 10.51 -5.9 21.14 -14.94 29 -24 c 11.12 -12.82 23.43 -29.26 30 -44 c 4.89 -10.97 5.29 -26.03 7 -39 c 0.61 -4.58 0.83 -9.71 0 -14 c -1.07 -5.53 -2.85 -13.71 -6 -17 c -2.99 -3.12 -10.57 -4.77 -16 -6 c -8.99 -2.04 -18.57 -3.3 -28 -4 c -8.67 -0.64 -18.12 -1.89 -26 0 c -17.06 4.1 -36.57 11.57 -53 19 c -7.13 3.22 -15.01 8.34 -20 14 c -9.14 10.35 -18.97 25.16 -25 37 c -2.18 4.28 -2.7 11.79 -2 16 c 0.43 2.61 3.53 6.54 6 8 c 5.55 3.29 14.07 6.75 21 8 c 8.95 1.61 18.96 0.93 29 1 c 41.19 0.28 78.82 -0.31 119 0 l 9 1"/></svg>