<?xml version="1.0" encoding="UTF-8" standalone="no"?><!DOCTYPE svg PUBLIC "-//W3C//DTD SVG 1.1//EN" "http://www.w3.org/Graphics/SVG/1.1/DTD/svg11.dtd"><svg xmlns="http://www.w3.org/2000/svg" version="1.1" width="52.852892610721234" height="27.426446305360617"><path fill="none" stroke="#000000" stroke-width="2" stroke-linecap="round" stroke-linejoin="round" d="M 25.48 6.65 c -0.13 -0.07 -5.02 -3.11 -7.53 -3.77 c -3.1 -0.82 -7.11 -0.94 -10.36 -0.94 c -1.21 0 -3.01 0.31 -3.77 0.94 c -0.82 0.68 -1.5 2.49 -1.88 3.77 c -0.52 1.74 -0.77 3.76 -0.94 5.65 c -0.14 1.55 -0.53 3.78 0 4.71 c 0.47 0.83 2.59 1.77 3.77 1.88 c 1.6 0.16 4.7 0.09 5.65 -0.94 c 2.1 -2.28 4.4 -7.75 5.65 -11.3 c 0.47 -1.32 -0.34 -4.48 0 -4.71 c 0.29 -0.19 2.37 1.8 2.83 2.83 c 0.65 1.47 0.4 3.84 0.94 5.65 c 1.33 4.43 4.71 13.18 4.71 13.18"/><path fill="none" stroke="#000000" stroke-width="2" stroke-linecap="round" stroke-linejoin="round" d="M 46.2 8.53 c -0.05 -0.03 -1.88 -1.69 -2.83 -1.88 c -1.84 -0.37 -4.59 -0.33 -6.59 0 c -1.54 0.26 -3.36 1.03 -4.71 1.88 c -1.95 1.24 -4.57 2.96 -5.65 4.71 c -1.14 1.85 -2.49 6.56 -1.88 7.53 c 0.52 0.83 4.91 0.65 6.59 0 c 1.87 -0.72 4.5 -2.84 5.65 -4.71 c 2.58 -4.17 6.46 -14.81 6.59 -15.07 c 0.05 -0.09 -1.88 3.86 -1.88 5.65 c 0 4.56 0.97 10.27 1.88 15.07 l 1.88 4.71"/><path fill="none" stroke="#000000" stroke-width="2" stroke-linecap="round" stroke-linejoin="round" d="M 48.09 9.48 l 0.94 4.71"/><path fill="none" stroke="#000000" stroke-width="2" stroke-linecap="round" stroke-linejoin="round" d="M 47.14 9.48 c 0.03 0.28 1.46 15.17 1.88 16.01 c 0.19 0.37 3.07 -6.65 2.83 -6.59 c -0.34 0.08 -6.59 7.53 -6.59 7.53"/></svg>