<?xml version="1.0" encoding="UTF-8" standalone="no"?><!DOCTYPE svg PUBLIC "-//W3C//DTD SVG 1.1//EN" "http://www.w3.org/Graphics/SVG/1.1/DTD/svg11.dtd"><svg xmlns="http://www.w3.org/2000/svg" version="1.1" width="386" height="183"><path fill="none" stroke="#000000" stroke-width="2" stroke-linecap="round" stroke-linejoin="round" d="M 200 40 c 0 -0.1 0.78 -4.63 0 -6 c -1.47 -2.58 -4.94 -6.58 -8 -8 c -9.42 -4.36 -21.76 -8.49 -33 -11 c -17 -3.8 -34.58 -6.17 -52 -8 c -7.95 -0.84 -16.91 -1.54 -24 0 c -7.14 1.55 -15.23 5.89 -22 10 c -10.03 6.09 -20.52 13.26 -29 21 c -6.4 5.84 -11.71 13.68 -17 21 c -3.42 4.74 -7.24 9.85 -9 15 c -2.66 7.79 -4.29 17.46 -5 26 c -0.59 7.11 -0.47 15.56 1 22 c 0.99 4.32 4.02 9.38 7 13 c 5.99 7.28 13.22 15.85 21 21 c 12.89 8.53 29.47 17.16 44 22 c 10.11 3.37 22.48 3.5 34 4 c 19.52 0.85 40.36 3.64 58 0 c 23.67 -4.88 48.95 -16.89 73 -27 c 11.89 -5 23.1 -11.07 34 -18 c 17.69 -11.24 35.39 -22.77 51 -36 c 12.39 -10.49 23.7 -23.73 34 -36 c 3.36 -3.99 6.17 -9.17 8 -14 c 2.7 -7.13 5.07 -15.57 6 -23 c 0.67 -5.32 0.52 -12.45 -1 -17 c -1.14 -3.42 -5.39 -8.14 -8 -10 c -1.22 -0.87 -4.32 -0.52 -6 0 c -2.25 0.69 -5.67 2.13 -7 4 c -3.68 5.19 -7.06 13.09 -10 20 c -2.78 6.55 -5.82 13.26 -7 20 c -2.4 13.73 -3.16 28.36 -4 43 c -0.52 9.16 -0.51 18.4 0 27 c 0.14 2.32 0.79 5.24 2 7 c 2.12 3.08 5.88 7.1 9 9 c 2.26 1.38 6.24 2.21 9 2 c 5.22 -0.4 12.31 -1.73 17 -4 c 4.2 -2.03 8.23 -6.43 12 -10 l 7 -8"/></svg>